<?xml version="1.0" encoding="utf-8" ?>
<svg baseProfile="full" height="100%" version="1.1" width="100%" xmlns="http://www.w3.org/2000/svg" xmlns:ev="http://www.w3.org/2001/xml-events" xmlns:xlink="http://www.w3.org/1999/xlink"><defs /><line stroke="red" stroke-width="10" x1="10%" x2="30%" y1="10%" y2="10%" /><line stroke="red" stroke-width="10" x1="30%" x2="30%" y1="10%" y2="30%" /><line stroke="red" stroke-width="10" x1="30%" x2="10%" y1="30%" y2="30%" /><line stroke="red" stroke-width="10" x1="10%" x2="10%" y1="30%" y2="10%" /><line stroke="red" stroke-width="10" x1="30%" x2="50%" y1="10%" y2="10%" /><line stroke="red" stroke-width="10" x1="50%" x2="50%" y1="10%" y2="30%" /><line stroke="red" stroke-width="10" x1="50%" x2="30%" y1="30%" y2="30%" /><line stroke="red" stroke-width="10" x1="30%" x2="30%" y1="30%" y2="10%" /><line stroke="red" stroke-width="10" x1="50%" x2="70%" y1="10%" y2="10%" /><line stroke="red" stroke-width="10" x1="70%" x2="70%" y1="10%" y2="30%" /><line stroke="red" stroke-width="10" x1="70%" x2="50%" y1="30%" y2="30%" /><line stroke="red" stroke-width="10" x1="50%" x2="50%" y1="30%" y2="10%" /><line stroke="red" stroke-width="10" x1="70%" x2="90%" y1="10%" y2="10%" /><line stroke="red" stroke-width="10" x1="90%" x2="90%" y1="10%" y2="30%" /><line stroke="red" stroke-width="10" x1="90%" x2="70%" y1="30%" y2="30%" /><line stroke="red" stroke-width="10" x1="70%" x2="70%" y1="30%" y2="10%" /><line stroke="red" stroke-width="10" x1="10%" x2="30%" y1="30%" y2="30%" /><line stroke="red" stroke-width="10" x1="30%" x2="30%" y1="30%" y2="50%" /><line stroke="red" stroke-width="10" x1="30%" x2="10%" y1="50%" y2="50%" /><line stroke="red" stroke-width="10" x1="10%" x2="10%" y1="50%" y2="30%" /><line stroke="red" stroke-width="10" x1="30%" x2="50%" y1="30%" y2="30%" /><line stroke="red" stroke-width="10" x1="50%" x2="50%" y1="30%" y2="50%" /><line stroke="red" stroke-width="10" x1="50%" x2="30%" y1="50%" y2="50%" /><line stroke="red" stroke-width="10" x1="30%" x2="30%" y1="50%" y2="30%" /><line stroke="red" stroke-width="10" x1="50%" x2="70%" y1="30%" y2="30%" /><line stroke="red" stroke-width="10" x1="70%" x2="70%" y1="30%" y2="50%" /><line stroke="red" stroke-width="10" x1="70%" x2="50%" y1="50%" y2="50%" /><line stroke="red" stroke-width="10" x1="50%" x2="50%" y1="50%" y2="30%" /><line stroke="red" stroke-width="10" x1="70%" x2="90%" y1="30%" y2="30%" /><line stroke="red" stroke-width="10" x1="90%" x2="90%" y1="30%" y2="50%" /><line stroke="red" stroke-width="10" x1="90%" x2="70%" y1="50%" y2="50%" /><line stroke="red" stroke-width="10" x1="70%" x2="70%" y1="50%" y2="30%" /><line stroke="red" stroke-width="10" x1="10%" x2="30%" y1="50%" y2="50%" /><line stroke="red" stroke-width="10" x1="30%" x2="30%" y1="50%" y2="70%" /><line stroke="red" stroke-width="10" x1="30%" x2="10%" y1="70%" y2="70%" /><line stroke="red" stroke-width="10" x1="10%" x2="10%" y1="70%" y2="50%" /><line stroke="red" stroke-width="10" x1="30%" x2="50%" y1="50%" y2="50%" /><line stroke="red" stroke-width="10" x1="50%" x2="50%" y1="50%" y2="70%" /><line stroke="red" stroke-width="10" x1="50%" x2="30%" y1="70%" y2="70%" /><line stroke="red" stroke-width="10" x1="30%" x2="30%" y1="70%" y2="50%" /><line stroke="red" stroke-width="10" x1="50%" x2="70%" y1="50%" y2="50%" /><line stroke="red" stroke-width="10" x1="70%" x2="70%" y1="50%" y2="70%" /><line stroke="red" stroke-width="10" x1="70%" x2="50%" y1="70%" y2="70%" /><line stroke="red" stroke-width="10" x1="50%" x2="50%" y1="70%" y2="50%" /><line stroke="red" stroke-width="10" x1="70%" x2="90%" y1="50%" y2="50%" /><line stroke="red" stroke-width="10" x1="90%" x2="90%" y1="50%" y2="70%" /><line stroke="red" stroke-width="10" x1="90%" x2="70%" y1="70%" y2="70%" /><line stroke="red" stroke-width="10" x1="70%" x2="70%" y1="70%" y2="50%" /><line stroke="red" stroke-width="10" x1="10%" x2="30%" y1="70%" y2="70%" /><line stroke="red" stroke-width="10" x1="30%" x2="30%" y1="70%" y2="90%" /><line stroke="red" stroke-width="10" x1="30%" x2="10%" y1="90%" y2="90%" /><line stroke="red" stroke-width="10" x1="10%" x2="10%" y1="90%" y2="70%" /><line stroke="red" stroke-width="10" x1="30%" x2="50%" y1="70%" y2="70%" /><line stroke="red" stroke-width="10" x1="50%" x2="50%" y1="70%" y2="90%" /><line stroke="red" stroke-width="10" x1="50%" x2="30%" y1="90%" y2="90%" /><line stroke="red" stroke-width="10" x1="30%" x2="30%" y1="90%" y2="70%" /><line stroke="red" stroke-width="10" x1="50%" x2="70%" y1="70%" y2="70%" /><line stroke="red" stroke-width="10" x1="70%" x2="70%" y1="70%" y2="90%" /><line stroke="red" stroke-width="10" x1="70%" x2="50%" y1="90%" y2="90%" /><line stroke="red" stroke-width="10" x1="50%" x2="50%" y1="90%" y2="70%" /><line stroke="red" stroke-width="10" x1="70%" x2="90%" y1="70%" y2="70%" /><line stroke="red" stroke-width="10" x1="90%" x2="90%" y1="70%" y2="90%" /><line stroke="red" stroke-width="10" x1="90%" x2="70%" y1="90%" y2="90%" /><line stroke="red" stroke-width="10" x1="70%" x2="70%" y1="90%" y2="70%" /></svg>